<svg width="50" height="50" viewBox="0 0 50 50" fill="none" xmlns="http://www.w3.org/2000/svg">
<g id="Icons-05">
<path id="Vector" d="M38.3999 41.2939L37.4062 16.4439C37.3562 14.8814 36.0937 13.6627 34.5312 13.6627H30.1124V10.4877C30.1124 7.2252 27.4624 4.5752 24.1999 4.5752H24.0999C20.8374 4.5752 18.1874 7.2252 18.1874 10.4877V13.6627H13.7687C12.2062 13.6627 10.9437 14.8877 10.8937 16.4439L9.89994 41.3002C9.87494 42.0877 10.1624 42.8314 10.7062 43.3939C11.2499 43.9564 11.9874 44.2689 12.7749 44.2689H35.5249C36.3124 44.2689 37.0437 43.9564 37.5937 43.3939C38.1374 42.8314 38.4249 42.0877 38.3999 41.3002M19.9937 10.4877C19.9937 8.2252 21.8374 6.38145 24.0999 6.38145H24.1999C26.4624 6.38145 28.3062 8.2252 28.3062 10.4877V13.6627H19.9874V10.4877H19.9937ZM36.4562 42.2939C36.2124 42.5502 35.8812 42.6877 35.5249 42.6877H12.7812C12.4249 42.6877 12.0937 42.5502 11.8499 42.2939C11.5999 42.0377 11.4749 41.7064 11.4874 41.3502L12.4812 16.4939C12.5062 15.7877 13.0749 15.2377 13.7812 15.2377H18.1999V16.5752C17.7499 16.8689 17.4499 17.3814 17.4499 17.9564C17.4499 18.8689 18.1874 19.6127 19.1062 19.6127C20.0249 19.6127 20.7624 18.8752 20.7624 17.9564C20.7624 17.3752 20.4624 16.8689 20.0124 16.5752V15.2377H28.3312V16.5752C27.8812 16.8689 27.5812 17.3814 27.5812 17.9564C27.5812 18.8689 28.3187 19.6127 29.2374 19.6127C30.1562 19.6127 30.8937 18.8752 30.8937 17.9564C30.8937 17.3752 30.5937 16.8689 30.1437 16.5752V15.2377H34.5624C35.2687 15.2377 35.8374 15.7877 35.8624 16.4939L36.8562 41.3439C36.8687 41.7002 36.7374 42.0314 36.4937 42.2877" fill="#008BD2"/>
<path id="Vector_2" d="M9.0251 17.0873C8.98135 18.4561 8.94385 19.5686 8.94385 19.5686M9.0251 17.0873C9.06885 15.7186 9.0751 15.6748 9.0751 15.6748C9.0751 15.6748 9.0751 15.7186 9.0251 17.0873Z" stroke="#008BD2" stroke-width="1.6" stroke-linejoin="round"/>
<path id="Vector_3" d="M8.68746 27.1937C8.73121 25.8249 8.76871 24.7124 8.76871 24.7124M8.68746 27.1937C8.62913 28.8978 8.62704 28.9749 8.68121 27.4249C8.63121 28.9749 8.63329 28.8978 8.68746 27.1937Z" stroke="#008BD2" stroke-width="1.6" stroke-linejoin="round"/>
<path id="Vector_4" d="M6.2812 22.0562C6.2812 22.0562 5.1687 22.0187 3.79995 21.9749C2.4312 21.9312 2.38745 21.9312 2.38745 21.9312" stroke="#008BD2" stroke-width="1.6" stroke-linejoin="round"/>
<path id="Vector_5" d="M5.9375 24.8748C6.5 24.3498 6.95 23.9248 6.95 23.9248C6.95 23.9248 6.49375 24.3498 5.9375 24.8748ZM5.9375 24.8748C5.375 25.3998 5.84375 24.9623 5.84375 24.9623" stroke="#008BD2" stroke-width="1.6" stroke-linejoin="round"/>
<path id="Vector_6" d="M6.1251 19.2251C6.6501 19.7876 7.0751 20.2376 7.0751 20.2376M6.1251 19.2251C5.6001 18.6688 6.0376 19.1313 6.0376 19.1313C6.0376 19.1313 5.6001 18.6626 6.1251 19.2251Z" stroke="#008BD2" stroke-width="1.6" stroke-linejoin="round"/>
<path id="Vector_7" d="M41.1375 30.3812V32.8624V30.3812ZM41.1375 30.3812V28.9624V30.3812Z" stroke="#008BD2" stroke-width="1.6" stroke-linejoin="round"/>
<path id="Vector_8" d="M41.1375 40.4939V38.0127V40.4939ZM41.1375 40.4939V40.7252V40.4939Z" stroke="#008BD2" stroke-width="1.6" stroke-linejoin="round"/>
<path id="Vector_9" d="M47.3811 35.4375H43.7124H47.3811ZM47.3811 35.4375H47.6124H47.3811Z" stroke="#008BD2" stroke-width="1.6" stroke-linejoin="round"/>
<path id="Vector_10" d="M38.5313 35.4375H38.5688H38.0376H38.0938H38.5313Z" stroke="#008BD2" stroke-width="1.6" stroke-linejoin="round"/>
<path id="Vector_11" d="M43.9688 32.606C43.425 33.1498 42.9875 33.5873 42.9875 33.5873M43.9688 32.606C44.5125 32.0623 44.0563 32.5123 44.0563 32.5123C44.0563 32.5123 44.5063 32.0623 43.9688 32.606Z" stroke="#008BD2" stroke-width="1.6" stroke-linejoin="round"/>
<path id="Vector_12" d="M38.3125 38.2625C38.8563 37.7187 39.2938 37.2812 39.2938 37.2812M38.3125 38.2625C37.7688 38.8062 38.225 38.3562 38.225 38.3562C38.225 38.3562 37.775 38.8062 38.3125 38.2625Z" stroke="#008BD2" stroke-width="1.6" stroke-linejoin="round"/>
<path id="Vector_13" d="M38.3125 32.606C38.8563 33.1498 39.2938 33.5873 39.2938 33.5873M38.3125 32.606C37.7688 32.0623 38.225 32.5123 38.225 32.5123C38.225 32.5123 37.775 32.0623 38.3125 32.606Z" stroke="#008BD2" stroke-width="1.6" stroke-linejoin="round"/>
<path id="Vector_14" d="M43.9688 38.2625C43.425 37.7187 42.9875 37.2812 42.9875 37.2812M43.9688 38.2625C44.5125 38.8062 44.0563 38.3562 44.0563 38.3562C44.0563 38.3562 44.5063 38.8062 43.9688 38.2625Z" stroke="#008BD2" stroke-width="1.6" stroke-linejoin="round"/>
</g>
</svg>
