<svg width="51" height="50" viewBox="0 0 51 50" fill="none" xmlns="http://www.w3.org/2000/svg">
<g id="Icons-04 1">
<path id="Vector" d="M18.9625 11.0958C21.5375 8.5208 25.0437 7.0708 28.6875 7.0708C36.2812 7.0708 42.4437 13.227 42.4437 20.8208C42.4437 24.4645 40.9937 27.9708 38.4125 30.5458M36.05 14.6771L32.1667 21.2501M26.675 20.8708C26.1188 21.4895 25.5 22.1708 24.8187 22.9333H29.9875M26.675 20.8708C26.8625 20.6646 27.0562 20.4521 27.2437 20.2458M26.675 20.8708C26.8688 20.6646 27.0562 20.4521 27.2437 20.2458M27.2437 20.2458L27.375 20.0958M27.375 20.0958C27.6062 19.8395 27.8187 19.602 28 19.3895M27.375 20.0958C27.6062 19.8395 27.8125 19.602 28 19.3895M28 19.3895C28.1875 19.177 28.3437 18.9958 28.4687 18.8458M28.4687 18.8458C28.5937 18.6958 28.6687 18.6021 28.6937 18.5646M28.4687 18.8458C28.6 18.6958 28.6687 18.6021 28.6937 18.5646M28.6937 18.5646C28.7375 18.4896 28.8 18.402 28.875 18.2958M28.6937 18.5646C28.7375 18.4896 28.8 18.3958 28.875 18.2958M28.875 18.2958C28.95 18.1958 29.025 18.0708 29.1 17.9333M28.875 18.2958C28.9562 18.1958 29.025 18.0771 29.1 17.9333M29.1 17.9333C29.175 17.7958 29.2375 17.627 29.2875 17.4395M29.1 17.9333C29.1687 17.7958 29.2312 17.627 29.2875 17.4395M29.2875 17.4395C29.3375 17.252 29.3687 17.0271 29.3687 16.7771M29.2875 17.4395C29.3437 17.2458 29.3687 17.0271 29.3687 16.7771M29.3687 16.7771C29.3687 16.5271 29.325 16.2771 29.2437 16.0271C29.1625 15.7771 29.0312 15.552 28.8562 15.352M28.8562 15.352C28.6812 15.152 28.4562 14.9896 28.1812 14.8646M28.8562 15.352C28.6875 15.152 28.4562 14.9896 28.1812 14.8646M28.1812 14.8646C27.9062 14.7396 27.5687 14.6771 27.175 14.6771M27.175 14.6771C26.375 14.6833 25.7937 14.8583 25.4125 15.2021M27.175 14.6771C26.375 14.6833 25.7875 14.8583 25.4125 15.2021M25.4125 15.2021C25.0375 15.5458 24.85 15.9958 24.85 16.5583M38.3209 21.2668C38.3209 21.2668 34.9882 21.2668 32.3188 21.2668M36.1646 23.7501V14.5834M28.8437 30.4458C29.3062 29.8895 29.9625 29.5958 30.5687 29.6395C30.8562 29.6583 31.1312 29.7583 31.3687 29.9395L38.6687 35.4833C39.4 36.0395 39.4875 37.1583 38.8812 37.9958C38.8687 38.0083 38.8562 38.027 38.85 38.0395C38.8187 38.077 38.7875 38.1145 38.7562 38.152L38.1125 38.7958C29.875 49.052 0.437499 19.6833 10.7062 11.4083L11.35 10.7708C11.35 10.7708 11.3875 10.7333 11.4062 10.7146C11.4062 10.7146 11.4437 10.6771 11.4687 10.6646C11.5125 10.6271 11.5625 10.5958 11.6062 10.5646C12.4375 10.0271 13.4937 10.1333 14.0312 10.8396L19.575 18.1395C19.7437 18.3583 19.8375 18.6083 19.8687 18.8708C19.9375 19.4958 19.6375 20.1833 19.0625 20.6583C18.95 20.7521 18.8438 20.8583 18.75 20.9645L18.1062 21.6083C15 25.1708 24.3312 34.102 27.8125 31.4395L28.5625 30.7145C28.5625 30.7145 28.6125 30.6708 28.6312 30.652L28.7062 30.5833C28.75 30.5395 28.7937 30.4895 28.8375 30.4395L28.8437 30.4458Z" stroke="#008BD2" stroke-width="1.6" stroke-linecap="round" stroke-linejoin="round"/>
</g>
</svg>
