<svg width="51" height="50" viewBox="0 0 51 50" fill="none" xmlns="http://www.w3.org/2000/svg">
<g id="Icons-03">
<path id="Vector" d="M17.9936 8.8584V21.9709H12.0249C11.7436 21.9709 11.4874 22.1334 11.3624 22.3834C11.2374 22.6396 11.2686 22.9396 11.4374 23.1584L26.7749 43.1334C26.9124 43.3146 27.1311 43.4209 27.3624 43.4209C27.5936 43.4209 27.8124 43.3146 27.9499 43.1334L43.2874 23.1584C43.4624 22.9334 43.4874 22.6334 43.3624 22.3834C43.2374 22.1334 42.9811 21.9709 42.6999 21.9709H36.7311V9.2584" stroke="#008BD2" stroke-width="1.6" stroke-linecap="round" stroke-linejoin="round"/>
<path id="Vector_2" d="M23.6499 29.646L31.4124 19.021" stroke="#008BD2" stroke-width="1.6" stroke-linecap="round" stroke-linejoin="round"/>
<path id="Vector_3" d="M30.6813 29.6336C29.4626 29.4836 28.6938 28.4149 28.8438 27.0899C29.0126 25.7211 30.0501 24.8461 31.3001 25.0024C32.5376 25.1586 33.2876 26.1961 33.1251 27.5211C32.9313 29.0836 31.7501 29.7649 30.6813 29.6336Z" stroke="#008BD2" stroke-width="1.6" stroke-linecap="round" stroke-linejoin="round"/>
<path id="Vector_4" d="M23.5437 23.8895C22.3124 23.7395 21.5437 22.6645 21.7062 21.3395C21.8749 19.977 22.9124 19.102 24.1624 19.2582C25.3999 19.4145 26.1499 20.452 25.9874 21.777C25.7937 23.3395 24.6124 24.0207 23.5437 23.8895Z" stroke="#008BD2" stroke-width="1.6" stroke-linecap="round" stroke-linejoin="round"/>
<path id="Vector_5" d="M27.3623 7.00186V4.58936" stroke="#008BD2" stroke-width="1.6" stroke-linecap="round" stroke-linejoin="round"/>
<path id="Vector_6" d="M22.1689 8.97705V10.8896" stroke="#008BD2" stroke-width="1.6" stroke-linecap="round" stroke-linejoin="round"/>
<path id="Vector_7" d="M32.5625 7.88965V9.80215" stroke="#008BD2" stroke-width="1.6" stroke-linecap="round" stroke-linejoin="round"/>
</g>
</svg>
