<svg width="50" height="50" viewBox="0 0 50 50" fill="none" xmlns="http://www.w3.org/2000/svg">
<g id="Icons-02">
<path id="Vector" d="M31.3813 26.4521C31.3813 27.2646 30.7251 27.9209 29.9126 27.9209C29.1001 27.9209 28.4438 27.2646 28.4438 26.4521C28.4438 25.6396 29.1001 24.9834 29.9126 24.9834C30.7251 24.9834 31.3813 25.6396 31.3813 26.4521Z" fill="#008BD2"/>
<path id="Vector_2" d="M29.9127 22.5395C27.5564 22.5395 25.6689 24.652 26.0502 27.0707C26.3502 28.9957 28.0877 30.3645 30.0314 30.3645H41.6564C42.1939 30.3645 42.6314 29.927 42.6314 29.3832V23.5145C42.6314 22.977 42.1939 22.5332 41.6502 22.5332H29.9127V22.5395Z" stroke="#008BD2" stroke-width="1.6" stroke-linejoin="round"/>
<path id="Vector_3" d="M39.6999 32.8083V37.2083C39.6999 38.2895 38.8249 39.1645 37.7437 39.1645H15.2437C13.6249 39.1645 12.3062 37.852 12.3062 36.227V11.2896" stroke="#008BD2" stroke-width="1.6" stroke-linejoin="round"/>
<path id="Vector_4" d="M37.7438 12.2644V10.7956C37.7438 9.71436 36.8688 8.83936 35.7876 8.83936H14.8563C13.5813 8.83936 12.4376 9.77061 12.3188 11.0456C12.1813 12.5019 13.3251 13.7331 14.7563 13.7331H37.7438C38.8251 13.7331 39.7001 14.6081 39.7001 15.6894V20.0894" stroke="#008BD2" stroke-width="1.6" stroke-linejoin="round"/>
</g>
</svg>
